<svg width="44" height="29" viewBox="0 0 44 29" fill="none" xmlns="http://www.w3.org/2000/svg">
<path d="M42.6221 0.75C42.3988 1.11713 42.1452 1.55339 41.8896 2.03418C41.1497 3.42613 40.3278 5.30238 40.251 6.96582C40.1649 8.83402 40.9917 10.9811 41.7676 12.5781C42.164 13.3941 42.5648 14.1014 42.8662 14.6045C42.9741 14.7846 43.0711 14.938 43.1494 15.0625C41.4184 19.0597 41.2547 23.5577 42.6787 27.6641L38.8633 26.1377C37.3384 25.5277 35.6253 25.5985 34.1562 26.333L30.4863 28.168L26.5967 26.3721C24.9453 25.61 23.0303 25.674 21.4336 26.5449L18.5703 28.1064C18.4645 28.0266 18.3413 27.9325 18.2002 27.8311C17.7223 27.4876 17.0494 27.0347 16.2734 26.6016C15.4999 26.1698 14.6053 25.7474 13.6865 25.4756C12.774 25.2057 11.7845 25.0681 10.8457 25.2656C9.62717 25.5222 8.38439 26.373 7.50586 27.0781C7.05249 27.442 6.66787 27.7912 6.39648 28.0488C6.31784 28.1235 6.24948 28.1919 6.19043 28.25H0.75V14.7227L9.90527 0.75H42.6221Z" stroke="white" stroke-width="1.5"/>
<path d="M31.75 9.94434V23.25H12.75V11.3633L21.5752 4.39551L31.75 9.94434Z" stroke="white" stroke-width="1.5"/>
<line x1="10.5199" y1="12.4238" x2="22.5199" y2="2.42383" stroke="white" stroke-width="1.5"/>
<path d="M21.5349 3.70404L33.2684 10.5782" stroke="white" stroke-width="1.5"/>
<line x1="21.75" y1="4" x2="21.75" y2="24" stroke="white" stroke-width="1.5"/>
<rect x="22.5" y="17.5" width="1" height="1" fill="black" stroke="white"/>
<rect x="26.5" y="17.5" width="1" height="1" fill="black" stroke="white"/>
<rect x="24.5" y="19.5" width="1" height="1" fill="black" stroke="white"/>
<rect x="28.5" y="19.5" width="1" height="1" fill="black" stroke="white"/>
<rect x="30.5" y="17.5" width="1" height="1" fill="black" stroke="white"/>
<rect x="22.5" y="21.5" width="1" height="1" fill="black" stroke="white"/>
<rect x="26.5" y="21.5" width="1" height="1" fill="black" stroke="white"/>
<rect x="30.5" y="21.5" width="1" height="1" fill="black" stroke="white"/>
</svg>
